<svg id="visual" viewBox="0 0 900 250" width="900" height="250" xmlns="http://www.w3.org/2000/svg" xmlns:xlink="http://www.w3.org/1999/xlink" version="1.1"><rect x="0" y="0" width="900" height="250" fill="#222"></rect><path d="M0 45L21.5 54.7C43 64.3 86 83.7 128.8 92.2C171.7 100.7 214.3 98.3 257.2 99.3C300 100.3 343 104.7 385.8 95.8C428.7 87 471.3 65 514.2 61.5C557 58 600 73 642.8 77.3C685.7 81.7 728.3 75.3 771.2 73.8C814 72.3 857 75.7 878.5 77.3L900 79L900 251L878.5 251C857 251 814 251 771.2 251C728.3 251 685.7 251 642.8 251C600 251 557 251 514.2 251C471.3 251 428.7 251 385.8 251C343 251 300 251 257.2 251C214.3 251 171.7 251 128.8 251C86 251 43 251 21.5 251L0 251Z" fill="#394867"></path><path d="M0 100L21.5 102.2C43 104.3 86 108.7 128.8 111.8C171.7 115 214.3 117 257.2 114.2C300 111.3 343 103.7 385.8 96.8C428.7 90 471.3 84 514.2 91.5C557 99 600 120 642.8 121.5C685.7 123 728.3 105 771.2 97.8C814 90.7 857 94.3 878.5 96.2L900 98L900 251L878.5 251C857 251 814 251 771.2 251C728.3 251 685.7 251 642.8 251C600 251 557 251 514.2 251C471.3 251 428.7 251 385.8 251C343 251 300 251 257.2 251C214.3 251 171.7 251 128.8 251C86 251 43 251 21.5 251L0 251Z" fill="#2d3b60"></path><path d="M0 154L21.5 154.7C43 155.3 86 156.7 128.8 158.2C171.7 159.7 214.3 161.3 257.2 156C300 150.7 343 138.3 385.8 134.2C428.7 130 471.3 134 514.2 138.2C557 142.3 600 146.7 642.8 146.5C685.7 146.3 728.3 141.7 771.2 141.3C814 141 857 145 878.5 147L900 149L900 251L878.5 251C857 251 814 251 771.2 251C728.3 251 685.7 251 642.8 251C600 251 557 251 514.2 251C471.3 251 428.7 251 385.8 251C343 251 300 251 257.2 251C214.3 251 171.7 251 128.8 251C86 251 43 251 21.5 251L0 251Z" fill="#232f59"></path><path d="M0 192L21.5 192.2C43 192.3 86 192.7 128.8 192.7C171.7 192.7 214.3 192.3 257.2 188C300 183.7 343 175.3 385.8 172.3C428.7 169.3 471.3 171.7 514.2 175C557 178.3 600 182.7 642.8 182.5C685.7 182.3 728.3 177.7 771.2 174.8C814 172 857 171 878.5 170.5L900 170L900 251L878.5 251C857 251 814 251 771.2 251C728.3 251 685.7 251 642.8 251C600 251 557 251 514.2 251C471.3 251 428.7 251 385.8 251C343 251 300 251 257.2 251C214.3 251 171.7 251 128.8 251C86 251 43 251 21.5 251L0 251Z" fill="#1b2251"></path><path d="M0 220L21.5 215.2C43 210.3 86 200.7 128.8 198.7C171.7 196.7 214.3 202.3 257.2 206.3C300 210.3 343 212.7 385.8 209.7C428.7 206.7 471.3 198.3 514.2 200C557 201.7 600 213.3 642.8 216.3C685.7 219.3 728.3 213.7 771.2 214.2C814 214.7 857 221.3 878.5 224.7L900 228L900 251L878.5 251C857 251 814 251 771.2 251C728.3 251 685.7 251 642.8 251C600 251 557 251 514.2 251C471.3 251 428.7 251 385.8 251C343 251 300 251 257.2 251C214.3 251 171.7 251 128.8 251C86 251 43 251 21.5 251L0 251Z" fill="#141549"></path></svg>